<svg height="512pt" viewBox="0 0 512 512" width="512pt" xmlns="http://www.w3.org/2000/svg"><path d="m88.269531 337.136719h110.417969v164.605469h-110.417969zm0 0" fill="#73ea9c"/>
<path d="m242.269531 88.449219c-12.144531 0-21.988281 9.847656-21.988281 21.988281 0 22.929688-9.320312 43.714844-24.382812 58.773438-15.058594 15.054687-35.847657 24.382812-58.773438 24.382812-45.851562 0-83.152344-37.304688-83.152344-83.15625 0-12.140625-9.84375-21.988281-21.988281-21.988281s-21.988281 9.847656-21.988281 21.988281c0 52.800781 32.355468 98.179688 78.28125 117.367188v109.332031h110.410156v-115.5c10.410156-5.785157 19.929688-12.984375 28.292969-21.347657 23.019531-23.019531 37.277343-54.800781 37.277343-89.851562 0-12.144531-9.84375-21.988281-21.988281-21.988281zm0 0" fill="#73ea9c"/>
<path d="m183.105469 147.453125c0 25.390625-20.585938 45.976563-45.976563 45.976563-25.394531 0-45.976562-20.585938-45.976562-45.976563s20.582031-45.976563 45.976562-45.976563c25.390625 0 45.976563 20.585938 45.976563 45.976563zm0 0" fill="#73ea9c"/>
<path d="m325.75 473.894531h110.417969v27.847657h-110.417969zm0 0" fill="#73ea9c"/>
<path d="m479.75 225.210938c-12.144531 0-21.988281 9.84375-21.988281 21.988281 0 22.929687-9.320313 43.714843-24.382813 58.773437-15.054687 15.050782-35.847656 24.382813-58.773437 24.382813-45.851563 0-83.152344-37.304688-83.152344-83.15625 0-12.144531-9.84375-21.988281-21.988281-21.988281-12.144532 0-21.988282 9.84375-21.988282 21.988281 0 52.800781 32.355469 98.179687 78.28125 117.367187v109.328125h110.410157v-115.496093c10.410156-5.789063 19.929687-12.984376 28.292969-21.347657 23.019531-23.019531 37.277343-54.800781 37.277343-89.851562.003907-12.144531-9.84375-21.988281-21.988281-21.988281zm0 0" fill="#73ea9c"/>
<path d="m420.585938 284.214844c0 25.390625-20.585938 45.976562-45.976563 45.976562s-45.976563-20.585937-45.976563-45.976562c0-25.394532 20.585938-45.976563 45.976563-45.976563s45.976563 20.582031 45.976563 45.976563zm0 0" fill="#73ea9c
"/>
<path d="m242.269531 78.453125c-8.542969 0-16.574219 3.328125-22.613281 9.371094-6.042969 6.039062-9.371094 14.070312-9.367188 22.613281 0 17.988281-6.496093 34.996094-18.355468 48.382812.761718-3.671874 1.164062-7.472656 1.164062-11.367187 0-30.863281-25.105468-55.972656-55.96875-55.972656-30.863281 0-55.972656 25.109375-55.972656 55.972656 0 3.894531.402344 7.695313 1.164062 11.367187-11.40625-12.90625-18.351562-29.84375-18.351562-48.382812 0-17.636719-14.347656-31.984375-31.984375-31.984375s-31.984375 14.347656-31.984375 31.984375c0 53.226562 30.511719 101.128906 78.28125 123.847656v102.695313c0 .050781-.007812.101562-.007812.15625v164.605469c0 5.519531 4.476562 9.992187 9.996093 9.992187s9.992188-4.472656 9.992188-9.992187v-154.609376h90.429687v114.628907c0 5.519531 4.476563 9.996093 9.996094 9.996093s9.996094-4.476562 9.996094-9.996093v-234.394531c9.203125-5.648438 17.714844-12.359376 25.363281-20.007813 25.929687-25.929687 40.207031-60.347656 40.207031-96.921875 0-17.636719-14.347656-31.984375-31.984375-31.984375zm-105.140625 33.015625c19.839844 0 35.980469 16.140625 35.980469 35.984375 0 19.839844-16.140625 35.980469-35.980469 35.980469-19.84375 0-35.984375-16.140625-35.984375-35.980469 0-19.84375 16.140625-35.984375 35.984375-35.984375zm82.785156 81.753906c-7.742187 7.738282-16.515624 14.359375-26.082031 19.679688-3.171875 1.761718-5.140625 5.105468-5.140625 8.734375v105.503906h-90.421875v-99.335937c0-4.03125-2.421875-7.667969-6.140625-9.222657-43.824218-18.308593-72.140625-60.757812-72.140625-108.144531 0-6.613281 5.378907-11.992188 11.992188-11.992188s11.996093 5.382813 11.996093 11.992188c0 51.363281 41.789063 93.148438 93.148438 93.148438h.003906c24.839844 0 48.21875-9.695313 65.835938-27.308594 17.613281-17.609375 27.3125-40.992188 27.3125-65.839844 0-3.203125 1.246094-6.214844 3.511718-8.480469 2.265626-2.265625 5.277344-3.511719 8.480469-3.511719 6.613281 0 11.992188 5.378907 11.996094 11.992188 0 31.234375-12.203125 60.632812-34.351563 82.785156zm0 0"/>
<path d="m198.6875 491.75c-2.640625 0-5.207031 1.066406-7.066406 2.925781s-2.929688 4.429688-2.929688 7.066407c0 2.628906 1.070313 5.207031 2.929688 7.066406s4.4375 2.929687 7.066406 2.929687 5.207031-1.070312 7.066406-2.929687 2.929688-4.4375 2.929688-7.066406c0-2.628907-1.070313-5.207032-2.929688-7.066407s-4.4375-2.925781-7.066406-2.925781zm0 0"/>
<path d="m143.59375 387.71875c-5.519531 0-9.996094 4.476562-9.996094 9.996094v104.289062c0 5.519532 4.476563 9.996094 9.996094 9.996094s9.992188-4.476562 9.992188-9.996094v-104.289062c0-5.519532-4.472657-9.996094-9.992188-9.996094zm0 0"/>
<path d="m479.753906 215.214844c-8.542968 0-16.578125 3.328125-22.617187 9.367187-6.042969 6.042969-9.367188 14.074219-9.367188 22.617188 0 17.988281-6.492187 34.996093-18.351562 48.382812.757812-3.671875 1.160156-7.472656 1.160156-11.367187 0-30.863282-25.105469-55.972656-55.96875-55.972656s-55.972656 25.109374-55.972656 55.972656c0 3.894531.402343 7.695312 1.164062 11.367187-11.40625-12.90625-18.351562-29.84375-18.351562-48.382812 0-17.636719-14.347657-31.984375-31.984375-31.984375-17.636719 0-31.984375 14.347656-31.984375 31.984375 0 12.1875 1.609375 24.28125 4.785156 35.953125 1.445313 5.324218 6.933594 8.472656 12.265625 7.019531 5.328125-1.449219 8.46875-6.941406 7.019531-12.265625-2.707031-9.960938-4.082031-20.292969-4.082031-30.707031 0-6.613281 5.382812-11.996094 11.996094-11.996094 6.613281.003906 11.992187 5.382813 11.992187 11.996094 0 51.363281 41.789063 93.148437 93.148438 93.148437h.003906c24.839844 0 48.21875-9.699218 65.835937-27.308594 17.613282-17.609374 27.3125-40.992187 27.3125-65.84375 0-3.199218 1.246094-6.210937 3.511719-8.476562s5.277344-3.515625 8.480469-3.515625c6.613281 0 11.992188 5.382813 11.996094 11.996094-.003906 31.234375-12.203125 60.632812-34.355469 82.785156-7.734375 7.738281-16.511719 14.359375-26.078125 19.675781-3.171875 1.765625-5.140625 5.109375-5.140625 8.738282v105.503906h-90.421875v-99.335938c0-4.03125-2.421875-7.667968-6.140625-9.222656-9.75-4.074219-18.925781-9.46875-27.269531-16.027344-4.339844-3.414062-10.621094-2.660156-14.035156 1.679688-3.410157 4.335937-2.660157 10.621094 1.679687 14.035156 7.992187 6.285156 16.640625 11.652344 25.777344 16.011719v102.699219c-.003907.050781-.007813.101562-.007813.15625v27.84375c0 5.519531 4.472656 9.992187 9.992188 9.992187 5.519531 0 9.996094-4.472656 9.996094-9.992187v-17.851563h90.429687v17.851563c0 5.519531 4.476563 9.992187 9.996094 9.992187s9.992187-4.472656 9.992187-9.992187v-137.613282c9.207032-5.648437 17.71875-12.363281 25.367188-20.011718 25.925781-25.925782 40.207031-60.347657 40.207031-96.921876 0-17.632812-14.347656-31.980468-31.980469-31.980468zm-105.144531 33.015625c19.839844 0 35.980469 16.140625 35.980469 35.984375 0 19.839844-16.140625 35.980468-35.980469 35.980468s-35.980469-16.140624-35.980469-35.980468c0-19.84375 16.140625-35.984375 35.980469-35.984375zm0 0"/>
<path d="m277.464844 312.574219c-3.09375-4.574219-9.308594-5.773438-13.878906-2.6875-4.574219 3.09375-5.777344 9.304687-2.6875 13.878906l.113281.167969c1.925781 2.886718 5.09375 4.449218 8.324219 4.449218 1.902343 0 3.832031-.542968 5.535156-1.679687 4.59375-3.0625 5.832031-9.265625 2.769531-13.859375zm0 0"/>
<path d="m447.769531 129.742188c5.519531 0 9.996094-4.472657 9.996094-9.992188v-13.804688c0-5.519531-4.476563-9.996093-9.996094-9.996093s-9.996093 4.476562-9.996093 9.996093v13.804688c0 5.519531 4.476562 9.992188 9.996093 9.992188zm0 0"/>
<path d="m447.769531 195.898438c5.519531 0 9.996094-4.476563 9.996094-9.996094v-13.804688c0-5.515625-4.476563-9.992187-9.996094-9.992187s-9.996093 4.476562-9.996093 9.992187v13.804688c0 5.519531 4.476562 9.996094 9.996093 9.996094zm0 0"/>
<path d="m473.945312 155.917969h13.804688c5.519531 0 9.992188-4.472657 9.992188-9.992188s-4.472657-9.996093-9.992188-9.996093h-13.804688c-5.519531 0-9.996093 4.476562-9.996093 9.996093s4.476562 9.992188 9.996093 9.992188zm0 0"/>
<path d="m407.789062 155.917969h13.804688c5.519531 0 9.996094-4.472657 9.996094-9.992188s-4.476563-9.996093-9.996094-9.996093h-13.804688c-5.519531 0-9.996093 4.476562-9.996093 9.996093s4.476562 9.992188 9.996093 9.992188zm0 0"/>
<path d="m343.824219 33.792969c5.519531 0 9.992187-4.476563 9.992187-9.996094v-13.800781c0-5.519532-4.472656-9.996094-9.992187-9.996094s-9.996094 4.476562-9.996094 9.996094v13.800781c0 5.519531 4.472656 9.996094 9.996094 9.996094zm0 0"/>
<path d="m343.824219 99.949219c5.519531 0 9.992187-4.476563 9.992187-9.996094v-13.804687c0-5.519532-4.472656-9.996094-9.992187-9.996094s-9.996094 4.476562-9.996094 9.996094v13.804687c0 5.519531 4.472656 9.996094 9.996094 9.996094zm0 0"/>
<path d="m369.996094 59.96875h13.804687c5.519531 0 9.996094-4.476562 9.996094-9.996094 0-5.519531-4.476563-9.992187-9.996094-9.992187h-13.804687c-5.519532 0-9.992188 4.472656-9.992188 9.992187 0 5.519532 4.472656 9.996094 9.992188 9.996094zm0 0"/>
<path d="m303.84375 59.96875h13.804688c5.519531 0 9.996093-4.476562 9.996093-9.996094 0-5.519531-4.476562-9.992187-9.996093-9.992187h-13.804688c-5.519531 0-9.996094 4.472656-9.996094 9.992187 0 5.519532 4.476563 9.996094 9.996094 9.996094zm0 0"/>
</svg>