<svg id="Layer_5" enable-background="new 0 0 64 64" height="512" viewBox="0 0 64 64" width="512" xmlns="http://www.w3.org/2000/svg"><g><g><g><path d="m13.92 28.42c-.14.6-.46 1.15-.92 1.55-.33.3-.73.52-1.18.65l-3.61.73c-.53.11-1.02.32-1.44.61l-1.85-2.31c-.94-1.18-1.68-2.51-2.17-3.91-.49-1.41-.75-2.9-.75-4.41 0-7.36 5.97-13.33 13.33-13.33h1.34c3.68 0 7.01 1.49 9.43 3.9 2.13 2.14 3.54 4.99 3.84 8.16.04.42.06.84.06 1.27 0 1.2-.16 2.39-.48 3.54-.48 1.73-1.3 3.36-2.44 4.78l-1.85 2.31c-.42-.29-.91-.5-1.44-.61l-3.61-.73c-.45-.13-.85-.35-1.18-.65-.46-.4-.78-.95-.92-1.55v-.01c.88-.53 1.53-1.39 1.79-2.41h1.13c1.1 0 2-.9 2-2 0-.45-.15-.86-.4-1.2l.89-1.78c.33-.67.51-1.41.51-2.17 0-2.68-2.17-4.85-4.85-4.85h-6.3c-1.34 0-2.55.54-3.43 1.42s-1.42 2.09-1.42 3.43c0 .76.18 1.5.51 2.17l.89 1.78c-.25.34-.4.75-.4 1.2 0 .55.22 1.05.59 1.41.36.37.86.59 1.41.59h1.13c.18.7.55 1.33 1.04 1.83.23.22.48.42.75.58z" fill="#ffeaa7"/></g><g><path d="m29.52 24.87c.32-1.15.48-2.34.48-3.54 0-.43-.02-.85-.06-1.27 1.65-.78 3.41-1.36 5.26-1.7l.8-2.36h6l.8 2.36c2.97.54 5.72 1.7 8.12 3.36l2.22-1.1 4.24 4.24-1.1 2.22c1.66 2.4 2.82 5.15 3.36 8.12l2.36.8v6l-2.36.8c-.54 2.97-1.7 5.72-3.36 8.12l1.1 2.22-4.24 4.24-2.22-1.1c-2.4 1.66-5.15 2.82-8.12 3.36l-.8 2.36h-6l-.8-2.36c-2.97-.54-5.72-1.7-8.12-3.36l-2.22 1.1-3.95-3.94c.69-.97 1.09-2.16 1.09-3.44v-2c.55 0 1.05-.22 1.41-.59.2-.19.36-.43.45-.69 2.83 5.5 8.53 9.28 15.14 9.28 9.39 0 17-7.61 17-17s-7.61-17-17-17c-3.42 0-6.59 1.02-9.25 2.75z" fill="#fcd770"/></g><g><path d="m22 48v2c0 1.28-.4 2.47-1.09 3.44-1.08 1.55-2.88 2.56-4.91 2.56-1.66 0-3.16-.67-4.24-1.76-1.09-1.08-1.76-2.58-1.76-4.24v-2z" fill="#aab2bd"/></g><g><path d="m24 46c0 .25-.05.49-.14.71v.01c-.09.26-.25.5-.45.69-.36.37-.86.59-1.41.59h-12c-1.1 0-2-.9-2-2 0-.55.22-1.05.59-1.41.36-.37.86-.59 1.41-.59h12c1.1 0 2 .9 2 2z" fill="#ccd1d9"/></g><g><path d="m25.41 43.41c-.36.37-.86.59-1.41.59h-2-12-2c-1.1 0-2-.9-2-2 0-.55.22-1.05.59-1.41.36-.37.86-.59 1.41-.59h2 12 2c1.1 0 2 .9 2 2 0 .55-.22 1.05-.59 1.41z" fill="#ccd1d9"/></g><g><path d="m25.23 31.96-.73.92c-1.62 2.02-2.5 4.53-2.5 7.12h-12c0-2.59-.88-5.1-2.5-7.12l-.73-.92c.42-.29.91-.5 1.44-.61l3.61-.73c.45-.13.85-.35 1.18-.65v.03c0 1.66 1.34 3 3 3 .83 0 1.58-.34 2.12-.88s.88-1.29.88-2.12v-.03c.33.3.73.52 1.18.65l3.61.73c.53.11 1.02.32 1.44.61z" fill="#b4dd7f"/></g><g><path d="m11 22c-.65 0-1.23.32-1.6.8l-.89-1.78c-.33-.67-.51-1.41-.51-2.17 0-1.34.54-2.55 1.42-3.43s2.09-1.42 3.43-1.42h6.3c2.68 0 4.85 2.17 4.85 4.85 0 .76-.18 1.5-.51 2.17l-.89 1.78c-.06-.07-.12-.14-.19-.21-.36-.37-.86-.59-1.41-.59h-1v-1c-1.23 0-2.42-.48-3.31-1.33l-.69-.67-.69.67c-.89.85-2.08 1.33-3.31 1.33v1z" fill="#656d78"/></g><g><path d="m23 24c0 1.1-.9 2-2 2h-1.13c.09-.32.13-.65.13-1v-3h1c.55 0 1.05.22 1.41.59.07.07.13.14.19.21.25.34.4.75.4 1.2z" fill="#f0d0b4"/></g><g><path d="m18.08 28.42c.14.6.46 1.15.92 1.55v.03c0 .83-.34 1.58-.88 2.12s-1.29.88-2.12.88c-1.66 0-3-1.34-3-3v-.03c.46-.4.78-.95.92-1.55v-.01c.61.38 1.32.59 2.08.59s1.47-.21 2.08-.59z" fill="#f0d0b4"/></g><g><path d="m20 22v3c0 .35-.04.68-.13 1-.26 1.02-.91 1.88-1.79 2.41-.61.38-1.32.59-2.08.59s-1.47-.21-2.08-.59c-.27-.16-.52-.36-.75-.58-.49-.5-.86-1.13-1.04-1.83-.09-.32-.13-.65-.13-1v-3-1c1.23 0 2.42-.48 3.31-1.33l.69-.67.69.67c.89.85 2.08 1.33 3.31 1.33z" fill="#f0d0b4"/></g><g><path d="m12 22v3c0 .35.04.68.13 1h-1.13c-.55 0-1.05-.22-1.41-.59-.37-.36-.59-.86-.59-1.41 0-.45.15-.86.4-1.2.37-.48.95-.8 1.6-.8z" fill="#f0d0b4"/></g><g><path d="m30 41h8v8h-8z" fill="#ff826e"/></g><g><path d="m30 29h8v8h-8z" fill="#ff826e"/></g></g><g><g><path d="m39 57c-6.789 0-12.931-3.768-16.027-9.833l1.781-.91c2.753 5.393 8.212 8.743 14.246 8.743 8.822 0 16-7.178 16-16s-7.178-16-16-16c-3.096 0-6.106.896-8.708 2.589l-.301.165-.945-1.762.228-.122c2.854-1.863 6.243-2.87 9.726-2.87 9.925 0 18 8.075 18 18s-8.075 18-18 18z"/></g><g><path d="m15 1h2v4h-2z"/><path d="m4 4.697h2v3.606h-2z" transform="matrix(.832 -.555 .555 .832 -2.766 3.865)"/><path d="m25.197 5.5h3.606v2h-3.606z" transform="matrix(.555 -.832 .832 .555 6.615 25.36)"/><path d="m60.509 34.442c-.56-2.667-1.592-5.163-3.073-7.436l1.164-2.349-5.258-5.257-2.35 1.164c-2.271-1.481-4.768-2.514-7.435-3.073l-.839-2.491h-7.436l-.841 2.491c-1.267.267-2.507.646-3.705 1.131-1.268-6.61-7.086-11.622-14.061-11.622h-1.35c-7.899 0-14.325 6.426-14.325 14.325 0 3.24 1.115 6.418 3.139 8.95l2.582 3.227c1.26 1.575 2.031 3.498 2.226 5.498h-.947c-1.654 0-3 1.346-3 3 0 1.383.945 2.539 2.22 2.884-.139.346-.22.721-.22 1.116 0 1.302.839 2.402 2 2.816v1.184c0 3.859 3.141 7 7 7 1.945 0 3.705-.799 4.975-2.083l3.683 3.683 2.35-1.164c2.271 1.481 4.768 2.514 7.435 3.073l.839 2.491h7.436l.84-2.491c2.667-.56 5.163-1.592 7.435-3.073l2.35 1.164 5.258-5.258-1.164-2.349c1.481-2.272 2.514-4.769 3.073-7.436l2.49-.839v-7.436zm-57.509-13.117c0-6.796 5.529-12.325 12.325-12.325h1.35c6.796 0 12.325 5.529 12.325 12.325 0 2.787-.959 5.522-2.701 7.7l-1.326 1.659c-.315-.136-.642-.244-.983-.313l-3.538-.71c-.502-.144-.914-.48-1.171-.918.548-.481.999-1.067 1.296-1.743h.423c1.654 0 3-1.346 3-3 0-.438-.099-.851-.269-1.227l.651-1.302c.404-.809.618-1.714.618-2.617 0-3.228-2.626-5.854-5.854-5.854h-6.291c-3.229 0-5.855 2.626-5.855 5.854 0 .902.214 1.808.618 2.618l.65 1.301c-.169.376-.268.789-.268 1.227 0 1.654 1.346 3 3 3h.424c.297.677.749 1.263 1.297 1.744-.252.436-.649.768-1.094.897l-3.618.729c-.34.069-.666.177-.981.313l-1.327-1.658c-1.742-2.177-2.701-4.913-2.701-7.7zm8 3.675c-.552 0-1-.448-1-1s.448-1 1-1zm1-5h-1v1c-.445 0-.863.103-1.243.278l-.349-.699c-.267-.534-.408-1.131-.408-1.725 0-2.125 1.729-3.854 3.854-3.854h6.291c2.126 0 3.855 1.729 3.855 3.854 0 .594-.141 1.19-.407 1.724l-.35.699c-.38-.174-.798-.277-1.243-.277v-1h-1c-.979 0-1.907-.374-2.613-1.054l-1.387-1.334-1.387 1.334c-.706.68-1.634 1.054-2.613 1.054zm9 3c.552 0 1 .448 1 1s-.448 1-1 1zm-8 2v-3.086c1.123-.196 2.164-.722 3-1.526.837.805 1.877 1.33 3 1.526v3.086c0 1.654-1.346 3-3 3s-3-1.346-3-3zm1.46 4.732c.488.16.999.268 1.54.268s1.053-.108 1.541-.268c.123.211.266.408.426.593-.156.947-.976 1.675-1.967 1.675-.989 0-1.808-.724-1.967-1.669.16-.186.304-.385.427-.599zm-6.107 2.616c.018-.004.034-.013.053-.016l3.694-.749c.069-.02.134-.049.201-.073.597 1.459 2.028 2.49 3.699 2.49 1.67 0 3.1-1.029 3.698-2.497.093.034.184.072.28.1l3.615.729c.019.004.036.013.054.017-1.5 1.911-2.408 4.237-2.605 6.651h-10.085c-.197-2.415-1.105-4.741-2.604-6.652zm-.353 8.652h16c.552 0 1 .448 1 1s-.448 1-1 1h-2-12-2c-.552 0-1-.448-1-1s.448-1 1-1zm15 5c0 .552-.448 1-1 1h-12c-.552 0-1-.448-1-1s.448-1 1-1h12c.552 0 1 .448 1 1zm-7 9c-2.757 0-5-2.243-5-5v-1h10v1c0 2.757-2.243 5-5 5zm45-13.718-2.238.754-.105.58c-.512 2.801-1.587 5.402-3.197 7.732l-.334.484 1.045 2.11-3.227 3.227-2.11-1.045-.484.334c-2.33 1.61-4.932 2.686-7.732 3.197l-.58.105-.756 2.24h-4.564l-.754-2.238-.58-.105c-2.801-.512-5.402-1.587-7.732-3.197l-.484-.334-2.11 1.045-2.881-2.881c.523-.983.823-2.102.823-3.29v-1.184c1.161-.414 2-1.514 2-2.816 0-.395-.081-.77-.22-1.116 1.275-.346 2.22-1.501 2.22-2.884 0-1.654-1.346-3-3-3h-.947c.195-2 .966-3.923 2.227-5.498l2.581-3.228c.423-.529.797-1.093 1.139-1.673v9.399h10v-8.586l1.707-1.707-1.414-1.414-1.707 1.707h-8.249c1.077-2.049 1.663-4.344 1.663-6.675 0-.209-.022-.413-.031-.62 1.415-.62 2.894-1.083 4.415-1.362l.58-.105.754-2.238h4.564l.754 2.238.58.105c2.801.512 5.402 1.587 7.732 3.197l.484.334 2.11-1.045 3.227 3.227-1.045 2.11.334.484c1.61 2.33 2.686 4.932 3.197 7.732l.105.58 2.24.756zm-27.293-6.575 3.293-3.293v4.586h-6v-6h4.586l-3.293 3.293z"/><path d="m39.293 38.293-1.707 1.707h-8.586v10h10v-8.586l1.707-1.707zm-2.293 9.707h-6v-6h4.586l-3.293 3.293 1.414 1.414 3.293-3.293z"/><path d="m41 48h8v2h-8z"/><path d="m41 44h8v2h-8z"/><path d="m41 40h8v2h-8z"/><path d="m41 36h8v2h-8z"/><path d="m41 32h8v2h-8z"/><path d="m41 28h8v2h-8z"/></g></g></g></svg>