<svg height="502.624pt" viewBox="0 0 502.624 502.624" width="502.624pt" 
     xmlns="http://www.w3.org/2000/svg" xmlns:xlink="http://www.w3.org/1999/xlink">
    <linearGradient id="a" gradientUnits="userSpaceOnUse" x1="251.312" x2="251.312"
                    y1="502.6248" y2="-.0008">
        <stop offset="0" stop-color="#21b18a"/>
        <stop offset="1" stop-color="#21b18a"/>
    </linearGradient>
    <path d="m296.398438 357.65625 11.3125 11.3125-16
 16-11.3125-11.3125zm-71.429688 71.421875c-3.128906
 3.128906-8.183594 3.121094-11.3125 0l-23.433594-23.429687-11.3125
 11.3125 23.433594 23.429687c4.679688 4.671875 10.824219 7.007813 
16.96875 7.007813s12.289062-2.335938 16.96875-7.015626l46.0625-46.054687-11.3125-11.3125zm58.34375-429.078125 219.3125 219.3125-283.3125 283.3125-219.3125-219.3125 112-112-97.855469-97.855469c-6.992187-6.992187-10.832031-16.273437-10.832031-26.144531s3.839844-19.152344 10.832031-26.144531l7.03125-7.03125c6.871094-6.878907 16.398438-10.824219 26.136719-10.824219 9.734375 0 19.261719 3.945312 26.144531 10.832031l97.855469 97.855469zm-192 54.625-12.6875 12.6875 124.6875 124.6875 12.6875-12.6875zm104.96875 167.03125 29.597656 4.230469-4.222656-29.597657zm-152.96875-141.65625 36.6875-36.6875-17.855469-17.855469c-7.800781-7.808593-21.855469-7.808593-29.65625 0l-7.03125 7.023438c-3.96875 3.96875-6.144531 9.230469-6.144531 14.832031 0 5.597656 2.175781 10.863281 6.144531 14.832031zm136 136 12.6875-12.6875-124.6875-124.6875-12.6875 12.6875zm300.6875 3.3125-196.6875-196.6875-100.6875 100.6875 52.230469 52.230469 9.886719 69.199219-69.199219-9.886719-52.230469-52.230469-100.6875 100.6875 196.6875 196.6875zm-186.910156-43.710938c13.078125-13.082031 30.46875-20.289062 48.964844-20.289062 38.183593 0 69.257812 31.070312 69.257812 69.253906 0 18.496094-7.199219 35.890625-20.289062 48.96875-16.617188 16.625-38.71875 25.777344-62.214844 25.777344h-27.847656l-57.992188 50.960938-26.640625-26.640626 57.695313-64.953124 7.351562-7.367188h47.433594c10.519531 0 20.832031-4.273438 28.28125-11.710938 4.015625-4.015624 6.222656-9.363281 6.222656-15.035156 0-11.71875-9.535156-21.253906-21.257812-21.253906-5.671876 0-11.007813 2.214844-15.03125 6.230469l-16.398438 16.394531-33.9375-33.9375zm6.222656 16.398438 11.3125 11.3125 5.085938-5.089844c7.050781-7.039062 16.410156-10.910156 26.34375-10.910156 20.546874 0 37.257812 16.710938 37.257812 37.253906 0 9.945313-3.871094 19.296875-10.90625 26.335938-10.4375 10.425781-24.863281 16.402344-39.597656 16.402344h-40.808594l-2.34375 2.34375-47.359375 53.335937 5.367187 5.359375 51.257813-45.03125h33.878906c19.222657 0 37.304688-7.488281 50.902344-21.089844 10.066406-10.0625 15.601563-23.429687 15.601563-37.65625.007812-29.367187-23.878907-53.253906-53.25-53.253906-14.214844 0-27.589844 5.535156-37.65625 15.597656zm-96 147.3125c13.230469 0 24 10.765625 24 24 0 13.230469-10.769531 24-24 24-13.234375 0-24-10.769531-24-24 0-13.234375 10.765625-24 24-24zm-8 24c0 4.40625 3.582031 8 8 8 4.414062 0 8-3.59375 8-8 0-4.410156-3.585938-8-8-8-4.417969 0-8 3.589844-8 8zm74.34375-298.34375 56 56 11.3125-11.3125-56-56zm43.3125 68.6875-56-56-11.3125 11.3125 56 56zm-24 24-56-56-11.3125 11.3125 56 56zm-88 144-80-80-11.3125 11.3125 80 80zm-115.3125-44.6875 80 80 11.3125-11.3125-80-80zm-24 24 80 80 11.3125-11.3125-80-80zm0 0" 
          fill="url(#a)"/>
</svg>