<svg id="Layer_3" enable-background="new 0 0 64 64" height="512" viewBox="0 0 64 64" width="512" xmlns="http://www.w3.org/2000/svg"><g><g><path d="m53.999 11.999h-2v-3c0-2.757 2.242-5 4.999-5v2c-1.653 0-2.999 1.346-2.999 3z" fill="#243242"/></g><path d="m62 54h-6v-49c0-1.657 1.343-3 3-3 1.657 0 3 1.343 3 3z" fill="#243242"/><path d="m62 21.668v-16.668c0-1.657-1.343-3-3-3s-3 1.343-3 3v20.789c2.26-.986 4.293-2.39 6-4.121z" fill="#4d5d7a"/><path d="m62 54-2 6h-2l-2-6z" fill="#4d5d7a"/><path d="m7 15h-3c-1.105 0-2 .895-2 2v37c0 1.105.895 2 2 2h46c1.105 0 2-.895 2-2v-37c0-1.105-.895-2-2-2h-3z" fill="#f8cf6a"/><path d="m27 52 .713-.428c2.805-1.683 6.015-2.572 9.287-2.572 3.272 0 6.482.889 9.287 2.572l.713.428v-40l-.713-.428c-2.805-1.683-6.015-2.572-9.287-2.572-3.272 0-6.482.889-9.287 2.572l-.713.428-.713-.428c-2.805-1.683-6.015-2.572-9.287-2.572-3.272 0-6.482.889-9.287 2.572l-.713.428v40l.713-.428c2.805-1.683 6.015-2.572 9.287-2.572 3.272 0 6.482.889 9.287 2.572z" fill="#ebf7fe"/><path d="m27 12v40l15-10v-40z" fill="#a1cdfb"/><path d="m27 33.975c7.205-4.27 12.038-12.121 12.038-21.103 0-2.803-.477-5.493-1.343-8.002-4.376 2.918-10.695 7.13-10.695 7.13z" fill="#c7e2fc"/><g><path d="m9.999 19h13.999v2h-13.999z" fill="#4d5d7a"/></g><g><path d="m9.999 35h13.999v2h-13.999z" fill="#4d5d7a"/></g><g><path d="m9.999 23h13.999v2h-13.999z" fill="#4d5d7a"/></g><g><path d="m9.999 27h4.999v2h-4.999z" fill="#4d5d7a"/></g><g><path d="m19 27h4.999v2h-4.999z" fill="#4d5d7a"/></g><g><path d="m9.999 31h4.999v2h-4.999z" fill="#4d5d7a"/></g><g><path d="m19 31h4.999v2h-4.999z" fill="#4d5d7a"/></g><g><path d="m30.467 13.999h8.062v2.001h-8.062z" fill="#4d5d7a" transform="matrix(.868 -.496 .496 .868 -2.895 19.104)"/></g><g><path d="m30.467 18.999h8.062v2.001h-8.062z" fill="#4d5d7a" transform="matrix(.868 -.496 .496 .868 -5.377 19.763)"/></g><g><path d="m30.467 23.999h8.062v2.001h-8.062z" fill="#4d5d7a" transform="matrix(.868 -.496 .496 .868 -7.859 20.423)"/></g><g><path d="m57.999 60h1.999v3h-1.999z" fill="#d5cec2"/></g></g></svg>