<svg id="Layer_3" enable-background="new 0 0 64 64" height="512" viewBox="0 0 64 64" width="512" xmlns="http://www.w3.org/2000/svg"><g><path d="m4 14h56v44h-56z" fill="#cdd3da"/><path d="m4 48.388c3.632 1.047 7.494 1.612 11.5 1.612 21.263 0 38.5-15.894 38.5-35.5 0-.168-.011-.333-.014-.5h-49.986z" fill="#ebedf0"/><path d="m46 18h8v10h-8z" fill="#7fcdee"/><path d="m46 18v10h5.111c1.399-3.134 2.329-6.491 2.701-10z" fill="#b2e1f5"/><path d="m10 46h16v12h-16z" fill="#758190"/><path d="m10 49.628c1.798.237 3.631.372 5.5.372 3.642 0 7.161-.476 10.5-1.348v-2.652h-16z" fill="#acb3bc"/><path d="m2 8h60v6h-60z" fill="#758190"/><path d="m53.345 8h-51.345v6h51.986c-.03-2.047-.25-4.051-.641-6z" fill="#acb3bc"/><path d="m38 46h16v12h-16z" fill="#758190"/><path d="m26 54h12v4h-12z" fill="#58616c"/><path d="m4 54h6v4h-6z" fill="#58616c"/><path d="m54 54h6v4h-6z" fill="#58616c"/><g fill="#b2e1f5"><path d="m10 18h8v10h-8z"/><path d="m22 18h8v10h-8z"/><path d="m34 18h8v10h-8z"/></g><path d="m46 32h8v10h-8z" fill="#7fcdee"/><path d="m34 32h8v10h-8z" fill="#b2e1f5"/><path d="m22 32h8v10h-8z" fill="#b2e1f5"/><path d="m10 32h8v10h-8z" fill="#b2e1f5"/><circle cx="32" cy="11" fill="#ed5c58" r="9"/><path d="m37 9h-3v-3h-4v3h-3v4h3v3h4v-3h3z" fill="#fff"/><path d="m2 58h60v4h-60z" fill="#9ba0a7"/><g><path d="m45 46h2v12h-2z" fill="#58616c"/></g><g><path d="m17 46h2v12h-2z" fill="#58616c"/></g><path d="m48.992 32h-2.992v4.152c1.099-1.314 2.099-2.701 2.992-4.152z" fill="#b2e1f5"/></g></svg>