<svg id="Capa_1" enable-background="new 0 0 512 512" height="512" viewBox="0 0 512 512" width="512" xmlns="http://www.w3.org/2000/svg"><g><g><g><g><g><path d="m261.632 426.408-37.601 27.757-4.653-27.757h-24.038c-7.758 0-14.046-6.298-14.046-14.068v-101.923c0-7.77 6.289-14.068 14.046-14.068h292.612c7.758 0 14.046 6.298 14.046 14.068v101.923c0 7.77-6.289 14.068-14.046 14.068z" fill="#ccf5fc"/></g></g></g><g><g><ellipse cx="73.315" cy="332.132" fill="#ffd0c7" rx="47.381" ry="47.381" transform="matrix(.906 -.423 .423 .906 -133.461 62.076)"/></g><path d="m136.63 465.762h-126.63v-59.033c0-15.031 12.185-27.216 27.216-27.216h72.198c15.031 0 27.216 12.185 27.216 27.216z" fill="#ff9eb1"/></g><g><g><g><g><g><g><path d="m250.368 187.894 37.601 27.757 4.652-27.757h24.038c7.758 0 14.046-6.299 14.046-14.068v-101.922c0-7.77-6.289-14.068-14.046-14.068h-292.613c-7.757 0-14.046 6.298-14.046 14.068v101.922c0 7.77 6.289 14.068 14.046 14.068z" fill="#d1aee5"/></g></g></g></g><g><g><ellipse cx="438.685" cy="93.619" fill="#ffd0c7" rx="47.381" ry="47.381" transform="matrix(.987 -.16 .16 .987 -9.332 71.478)"/></g><g><path d="m375.37 227.249h126.63v-59.033c0-15.031-12.185-27.216-27.216-27.216h-72.198c-15.031 0-27.216 12.185-27.216 27.216z" fill="#ffe6b4"/></g></g></g></g></g><g><g><path d="m359.809 387.077h-119.387c-5.523 0-10-4.477-10-10s4.477-10 10-10h119.387c5.522 0 10 4.477 10 10s-4.478 10-10 10z"/></g><g><g><path d="m442.873 349.724h-51.981c-5.522 0-10-4.477-10-10s4.478-10 10-10h51.981c5.523 0 10 4.477 10 10s-4.477 10-10 10z"/></g><g><path d="m300.479 349.724h-60.058c-5.523 0-10-4.477-10-10s4.477-10 10-10h60.058c5.523 0 10 4.477 10 10s-4.477 10-10 10z"/></g><g><path d="m345.87 349.72c-4.122 0-7.887-2.61-9.347-6.461-1.442-3.804-.385-8.212 2.632-10.945 3.184-2.884 7.991-3.388 11.712-1.247 3.668 2.11 5.635 6.464 4.803 10.613-.927 4.621-5.086 8.04-9.8 8.04z"/></g></g><g><g><path d="m271.578 111.21h-202.451c-5.523 0-10-4.477-10-10s4.477-10 10-10h202.451c5.523 0 10 4.477 10 10s-4.477 10-10 10z"/></g><g><path d="m186.812 148.564h-113.497c-5.523 0-10-4.477-10-10s4.477-10 10-10h113.497c5.523 0 10 4.477 10 10 0 5.522-4.477 10-10 10z"/></g></g><path d="m116.263 370.146c8.976-10.13 14.432-23.446 14.432-38.013 0-31.64-25.741-57.381-57.381-57.381s-57.381 25.741-57.381 57.381c0 14.567 5.456 27.884 14.432 38.014-17.259 3.223-30.365 18.401-30.365 36.582v59.033c0 5.523 4.477 10 10 10h126.63c5.523 0 10-4.477 10-10v-59.033c0-18.181-13.106-33.359-30.367-36.583zm-42.948-75.395c20.612 0 37.381 16.769 37.381 37.381s-16.769 37.381-37.381 37.381-37.381-16.769-37.381-37.381c0-20.611 16.769-37.381 37.381-37.381zm53.315 161.011h-106.63v-49.033c0-9.493 7.723-17.216 17.216-17.216h72.198c9.493 0 17.216 7.723 17.216 17.216z"/><path d="m481.633 131.632c8.976-10.13 14.432-23.446 14.432-38.013 0-31.64-25.741-57.381-57.381-57.381s-57.381 25.741-57.381 57.381c0 14.567 5.456 27.884 14.432 38.013-17.26 3.225-30.366 18.402-30.366 36.584v59.033c0 5.523 4.478 10 10 10h126.631c5.522 0 10-4.477 10-10v-59.033c0-18.182-13.106-33.36-30.367-36.584zm-42.948-75.394c20.612 0 37.381 16.769 37.381 37.381s-16.768 37.381-37.381 37.381-37.381-16.769-37.381-37.381 16.768-37.381 37.381-37.381zm53.315 161.011h-106.63v-49.033c0-9.493 7.723-17.216 17.216-17.216h72.198c9.493 0 17.216 7.723 17.216 17.216z"/><path d="m287.969 225.65c-2.107 0-4.193-.665-5.94-1.955l-34.952-25.802h-223.031c-13.259.001-24.046-10.796-24.046-24.067v-101.922c0-13.271 10.787-24.068 24.046-24.068h292.613c13.259 0 24.046 10.797 24.046 24.068v101.922c0 13.271-10.787 24.068-24.046 24.068h-15.575l-3.254 19.41c-.575 3.429-2.89 6.313-6.112 7.617-1.21.489-2.484.729-3.749.729zm-263.923-157.815c-2.231 0-4.046 1.825-4.046 4.068v101.922c0 2.243 1.815 4.068 4.046 4.068h226.321c2.138 0 4.219.685 5.939 1.954l24.492 18.081 1.96-11.688c.808-4.817 4.977-8.347 9.862-8.347h24.038c2.23 0 4.046-1.825 4.046-4.068v-101.921c0-2.243-1.816-4.068-4.046-4.068h-292.612z"/><path d="m224.031 464.165c-1.266 0-2.539-.24-3.749-.73-3.223-1.304-5.538-4.188-6.112-7.617l-3.253-19.41h-15.575c-13.259 0-24.046-10.797-24.046-24.068v-101.922c0-13.271 10.787-24.068 24.046-24.068h292.613c13.259 0 24.046 10.797 24.046 24.068v101.922c0 13.271-10.787 24.068-24.046 24.068h-223.03l-34.953 25.802c-1.748 1.29-3.835 1.955-5.941 1.955zm-28.69-157.815c-2.231 0-4.046 1.825-4.046 4.068v101.922c0 2.243 1.816 4.068 4.046 4.068h24.038c4.885 0 9.055 3.529 9.862 8.347l1.959 11.689 24.493-18.081c1.72-1.27 3.801-1.955 5.939-1.955h226.321c2.23 0 4.046-1.825 4.046-4.068v-101.922c0-2.243-1.815-4.068-4.046-4.068z"/></g></g></svg>